<?xml version="1.0" encoding="UTF-8"?>
<svg width="360px" height="221px" viewBox="0 0 360 221" version="1.1" xmlns="http://www.w3.org/2000/svg" xmlns:xlink="http://www.w3.org/1999/xlink">
    <title>Illustration_2_jan2018@1x</title>
    <defs>
        <rect id="path-1" x="0" y="0" width="360" height="221"></rect>
        <linearGradient x1="49.9996956%" y1="99.9906158%" x2="49.9996956%" y2="-0.00256609128%" id="linearGradient-3">
            <stop stop-color="#808080" stop-opacity="0.25" offset="0%"></stop>
            <stop stop-color="#808080" stop-opacity="0.12" offset="54%"></stop>
            <stop stop-color="#808080" stop-opacity="0.1" offset="100%"></stop>
        </linearGradient>
    </defs>
    <g id="Visual-Design_V2" stroke="none" stroke-width="1" fill="none" fill-rule="evenodd">
        <g id="Illustration_2_jan2018">
            <mask id="mask-2" fill="white">
                <use xlink:href="#path-1"></use>
            </mask>
            <g id="Mask"></g>
            <circle id="XMLID_149_" fill="#F2F2F2" fill-rule="nonzero" mask="url(#mask-2)" cx="179.591301" cy="130.696549" r="83.5913012"></circle>
            <g id="undraw_maker_launch_crhe" mask="url(#mask-2)">
                <g transform="translate(42.000000, 9.000000)">
                    <ellipse id="Oval" stroke="#F3431C" stroke-width="0.72202164" fill="none" cx="184.232757" cy="194.079756" rx="69.9090019" ry="9.76949755"></ellipse>
                    <path d="M18.2160314,151.933424 C18.2160314,151.933424 21.6339314,151.156628 23.8736916,153.453353 C23.8736916,153.453353 22.4340307,154.748013 19.0472025,153.31353 L18.2160314,151.933424 Z" id="Path" stroke="none" fill="#F15A29" fill-rule="nonzero"></path>
                    <path d="M17.8379909,151.899763 C17.8379909,151.899763 15.8131441,154.768727 17.0974459,157.712782 C17.0974459,157.712782 18.847825,156.871254 18.798628,153.194422 L17.8379909,151.899763 Z" id="Path" stroke="none" fill="#F15A29" fill-rule="nonzero"></path>
                    <path d="M15.5593909,147.575601 C15.5593909,147.575601 16.7737812,144.947443 22.5505501,148.124537 C22.5505501,148.124537 21.9291137,149.880094 19.47444,149.905988 C17.0197664,149.931881 16.2844,148.867671 15.5593909,147.575601 Z" id="Path" stroke="none" fill="#F15A29" fill-rule="nonzero"></path>
                    <path d="M15.1917077,147.415063 C15.1917077,147.415063 12.2994393,147.280419 12.4625664,153.867644 C12.4625664,153.867644 14.3087502,154.126576 15.4609968,151.956728 C16.6132434,149.786879 16.0021643,148.665704 15.1917077,147.415063 Z" id="Path" stroke="none" fill="#F15A29" fill-rule="nonzero"></path>
                    <path d="M13.1772182,142.288213 C13.1772182,142.288213 14.4718773,137.710299 20.5490071,140.506763 C20.5490071,140.506763 19.4873866,144.698869 13.8685661,143.779661 L13.1772182,142.288213 Z" id="Path" stroke="none" fill="#F15A29" fill-rule="nonzero"></path>
                    <path d="M10.921922,135.726881 C10.921922,135.726881 13.6614207,131.003965 19.3346169,134.836156 C19.3346169,134.836156 17.7318289,139.204335 11.491572,137.308955 L10.921922,135.726881 Z" id="Path" stroke="none" fill="#F15A29" fill-rule="nonzero"></path>
                    <path d="M9.84994431,129.408945 C9.84994431,129.408945 13.1202532,125.02005 18.7468416,128.810812 C18.7468416,128.810812 15.6241239,132.679254 9.9198559,130.467976 L9.84994431,129.408945 Z" id="Path" stroke="none" fill="#F15A29" fill-rule="nonzero"></path>
                    <path d="M8.8815393,123.267082 C8.8815393,123.267082 12.1855093,118.694346 17.5790591,122.451447 C17.5790591,122.451447 13.77794,126.550337 8.94886157,124.282095 L8.8815393,123.267082 Z" id="Path" stroke="none" fill="#F15A29" fill-rule="nonzero"></path>
                    <path d="M8.83493157,117.762192 C8.83493157,117.762192 12.239885,111.928458 17.2890555,115.387787 C17.2890555,115.387787 13.5552586,120.455082 8.90743248,118.821223 L8.83493157,117.762192 Z" id="Path" stroke="none" fill="#F15A29" fill-rule="nonzero"></path>
                    <path d="M9.29324089,111.294075 C9.29324089,111.294075 12.9182864,105.494002 17.8612948,109.434944 C17.8612948,109.434944 13.4335607,114.548848 9.35020589,112.322034 L9.29324089,111.294075 Z" id="Path" stroke="none" fill="#F15A29" fill-rule="nonzero"></path>
                    <path d="M10.2331634,105.478466 C10.2331634,105.478466 14.6350043,99.9606289 18.9203259,101.757616 C18.9203259,101.757616 14.3424114,107.609475 10.1166441,106.874108 L10.2331634,105.478466 Z" id="Path" stroke="none" fill="#F15A29" fill-rule="nonzero"></path>
                    <path d="M11.5278225,99.937325 C11.5278225,99.937325 16.5873502,93.2050977 19.9094455,95.1160146 C19.9094455,95.1160146 16.2041312,100.317955 11.214515,101.162073 L11.5278225,99.937325 Z" id="Path" stroke="none" fill="#F15A29" fill-rule="nonzero"></path>
                    <path d="M13.500883,93.4795655 C13.500883,93.4795655 17.9467423,87.9591391 21.5277694,89.0155809 C21.5277694,89.0155809 17.7862046,94.6835984 12.9571261,95.1470864 L13.500883,93.4795655 Z" id="Path" stroke="none" fill="#F15A29" fill-rule="nonzero"></path>
                    <path d="M15.2745659,87.4438648 C15.2745659,87.4438648 20.2408782,82.1098693 22.6049257,82.8296997 C22.6049257,82.8296997 19.1481859,88.6194152 15.1166175,88.5650395 L15.2745659,87.4438648 Z" id="Path" stroke="none" fill="#F15A29" fill-rule="nonzero"></path>
                    <path d="M17.0275343,81.8612947 C17.0275343,81.8612947 21.1937473,75.6080913 23.7131539,75.9058629 C23.7131539,75.9058629 21.3024987,81.3926281 17.0689634,82.4646059 L17.0275343,81.8612947 Z" id="Path" stroke="none" fill="#F15A29" fill-rule="nonzero"></path>
                    <path d="M18.8374678,74.3755758 C18.8374678,74.3755758 22.5634966,69.5439081 24.7437026,69.4092635 C24.7437026,69.4092635 21.9705428,75.711664 18.7701455,75.882559 L18.8374678,74.3755758 Z" id="Path" stroke="none" fill="#F15A29" fill-rule="nonzero"></path>
                    <path d="M19.873195,69.4014956 L23.1305573,59.6423553 C23.1305573,59.6423553 23.9073528,68.2129985 19.5055119,71.1958931 L19.873195,69.4014956 Z" id="Path" stroke="none" fill="#F15A29" fill-rule="nonzero"></path>
                    <path d="M20.7509739,58.8215414 C20.7509739,58.8215414 20.8649039,50.8490307 20.4065946,50.232773 C20.4065946,50.232773 23.6354744,56.6387462 20.9607087,62.3274783 L20.7509739,58.8215414 Z" id="Path" stroke="none" fill="#F15A29" fill-rule="nonzero"></path>
                    <path d="M13.0115018,142.192409 C13.0115018,142.192409 8.80127044,139.960416 6.59776065,146.265406 C6.59776065,146.265406 10.352272,148.409362 13.5889198,143.725285 L13.0115018,142.192409 Z" id="Path" stroke="none" fill="#F15A29" fill-rule="nonzero"></path>
                    <path d="M10.7743309,135.480896 C10.7743309,135.480896 5.66819542,133.551854 3.69254564,140.110597 C3.69254564,140.110597 7.69822089,142.479823 11.3336236,137.065559 L10.7743309,135.480896 Z" id="Path" stroke="none" fill="#F15A29" fill-rule="nonzero"></path>
                    <path d="M9.64538817,129.80511 C9.64538817,129.80511 5.81578656,125.892651 0.74849085,130.408422 C0.74849085,130.408422 4.35800041,133.823732 9.71529976,130.87191 L9.64538817,129.80511 Z" id="Path" stroke="none" fill="#F15A29" fill-rule="nonzero"></path>
                    <path d="M8.75984135,123.277439 C8.75984135,123.277439 4.87586405,119.183727 0.0312497104,123.629587 C0.0312497104,123.629587 4.34505382,127.18472 8.83493157,124.289863 L8.75984135,123.277439 Z" id="Path" stroke="none" fill="#F15A29" fill-rule="nonzero"></path>
                    <path d="M8.84528885,117.917551 C8.84528885,117.917551 5.90382338,111.840421 0.603489031,114.895816 C0.603489031,114.895816 3.93335223,120.23758 8.69251907,118.971403 L8.84528885,117.917551 Z" id="Path" stroke="none" fill="#F15A29" fill-rule="nonzero"></path>
                    <path d="M9.59619112,111.247467 C9.59619112,111.247467 6.66249361,105.058996 1.29483699,108.381092 C1.29483699,108.381092 5.09077746,113.976608 9.40976021,112.246944 L9.59619112,111.247467 Z" id="Path" stroke="none" fill="#F15A29" fill-rule="nonzero"></path>
                    <path d="M10.7691523,105.473287 C10.7691523,105.473287 9.3087768,98.5727544 4.67130792,98.2568575 C4.67130792,98.2568575 6.14204065,105.54061 10.2409314,106.770536 L10.7691523,105.473287 Z" id="Path" stroke="none" fill="#F15A29" fill-rule="nonzero"></path>
                    <path d="M11.6469311,99.9425037 C11.6469311,99.9425037 10.6966514,91.5764166 6.86704974,91.5375768 C6.86704974,91.5375768 7.42375316,97.8995316 11.2973732,101.156894 L11.6469311,99.9425037 Z" id="Path" stroke="none" fill="#F15A29" fill-rule="nonzero"></path>
                    <path d="M13.8815127,93.2128657 C13.8815127,93.2128657 12.2735461,86.3097434 8.58117839,85.7038429 C8.58117839,85.7038429 9.48743976,92.4360702 13.6381168,94.9528875 L13.8815127,93.2128657 Z" id="Path" stroke="none" fill="#F15A29" fill-rule="nonzero"></path>
                    <path d="M15.7095714,87.4645793 C15.7095714,87.4645793 15.1917077,80.1963631 12.8872145,79.2771552 C12.8872145,79.2771552 11.9524707,85.9524175 15.1269748,88.4381629 L15.7095714,87.4645793 Z" id="Path" stroke="none" fill="#F15A29" fill-rule="nonzero"></path>
                    <path d="M17.1932507,81.7706686 C17.1932507,81.7706686 16.3776155,74.3004856 14.0058,73.4019922 C14.0058,73.4019922 13.6174023,79.3807279 16.8799432,82.2833536 L17.1932507,81.7706686 Z" id="Path" stroke="none" fill="#F15A29" fill-rule="nonzero"></path>
                    <path d="M19.1999723,74.9504045 C19.1999723,74.9504045 18.7753241,68.8629174 17.0378916,67.5423651 C17.0378916,67.5423651 15.8519839,74.3237895 18.4231768,76.232117 L19.1999723,74.9504045 Z" id="Path" stroke="none" fill="#F15A29" fill-rule="nonzero"></path>
                    <path d="M19.6505137,69.1140813 L17.3719137,59.0830626 C17.3719137,59.0830626 15.7587684,67.5345972 19.8498912,70.9369613 L19.6505137,69.1140813 Z" id="Path" stroke="none" fill="#F15A29" fill-rule="nonzero"></path>
                    <path d="M19.2957771,59.0157403 C19.2957771,59.0157403 14.7308091,52.4699439 14.7670596,51.7086844 C14.7670596,51.7086844 15.6836782,58.8241308 21.0875853,62.0374746 L19.2957771,59.0157403 Z" id="Path" stroke="none" fill="#F15A29" fill-rule="nonzero"></path>
                    <path d="M19.6505137,56.9727682 C19.6505137,56.9727682 15.1295641,47.5502393 13.3248093,46.8744273 C13.3248093,46.8744273 19.0446132,49.3161543 19.9560532,56.6620501 L19.6505137,56.9727682 Z" id="Path" stroke="none" fill="#F15A29" fill-rule="nonzero"></path>
                    <path d="M18.7546096,75.9317561 L18.4956778,75.8670231 C21.0461562,64.9918867 21.4060714,58.1353721 19.5055119,56.5610666 L19.6815855,56.3487426 C21.6857178,58.0162635 21.369821,64.7899199 18.7546096,75.9317561 Z" id="Path" stroke="none" fill="#444053" fill-rule="nonzero"></path>
                    <path d="M11.4320177,101.477969 L11.0306734,101.366629 C11.3129091,100.367152 11.6184486,99.3495498 11.9447027,98.3474837 C14.7929527,89.6163027 17.1595896,81.5169154 18.6121971,75.3180877 L18.9410405,75.1238888 C17.4858437,81.3382525 15.1839398,89.7354114 12.3408684,98.4743603 C12.0172036,99.4738371 11.7116641,100.483671 11.4320177,101.477969 Z" id="Path" stroke="none" fill="#444053" fill-rule="nonzero"></path>
                    <path d="M23.6147598,159.58227 C23.5577948,159.527894 17.8612948,153.919431 13.4853471,143.984217 C10.9213799,138.16885 9.29497764,131.983977 8.66662589,125.659612 C7.88983043,117.754424 8.95145089,108.795383 11.2559441,100.569119 L11.5873768,100.910909 C6.40874042,119.375337 9.98458885,134.660082 13.9773175,143.738232 C18.3092468,153.577641 23.9410139,159.131728 23.9979789,159.186104 L23.6147598,159.58227 Z" id="Path" stroke="none" fill="#444053" fill-rule="nonzero"></path>
                    <path d="M29.8860885,130.009667 C29.8860885,130.009667 31.9575431,129.535821 33.3091672,130.928875 C33.3091672,130.928875 32.4365669,131.70567 30.3910055,130.843427 L29.8860885,130.009667 Z" id="Path" stroke="none" fill="#F15A29" fill-rule="nonzero"></path>
                    <path d="M29.6608178,129.991541 C29.6608178,129.991541 28.4386596,131.726385 29.2154551,133.505246 C29.2154551,133.505246 30.2718969,132.987382 30.2511824,130.773515 L29.6608178,129.991541 Z" id="Path" stroke="none" fill="#F15A29" fill-rule="nonzero"></path>
                    <path d="M28.2833005,127.373741 C28.2833005,127.373741 29.0160776,125.786489 32.5038892,127.707763 C32.5038892,127.707763 32.1284381,128.766794 30.6447587,128.78233 C29.1610794,128.797866 28.7260739,128.155715 28.2833005,127.373741 Z" id="Path" stroke="none" fill="#F15A29" fill-rule="nonzero"></path>
                    <path d="M28.0606192,127.277936 C28.0606192,127.277936 26.3102401,127.197667 26.4086342,131.177449 C26.4086342,131.177449 27.5246303,131.332808 28.2211569,130.022613 C28.9176835,128.712418 28.5500003,128.034017 28.0606192,127.277936 Z" id="Path" stroke="none" fill="#F15A29" fill-rule="nonzero"></path>
                    <path d="M26.8358717,124.178522 C26.8358717,124.178522 27.6307923,121.410541 31.2972669,123.096187 C31.2972669,123.096187 30.6577053,125.631129 27.2605198,125.074426 L26.8358717,124.178522 Z" id="Path" stroke="none" fill="#F15A29" fill-rule="nonzero"></path>
                    <path d="M25.4790689,120.211687 C25.4790689,120.211687 27.1336433,117.363436 30.5644899,119.673108 C30.5644899,119.673108 29.5934955,122.314213 25.8234482,121.167145 L25.4790689,120.211687 Z" id="Path" stroke="none" fill="#F15A29" fill-rule="nonzero"></path>
                    <path d="M24.8291501,116.392442 C24.8291501,116.392442 26.8073892,113.738391 30.207164,116.029938 C30.207164,116.029938 28.3221403,118.360324 24.8731685,117.032004 L24.8291501,116.392442 Z" id="Path" stroke="none" fill="#F15A29" fill-rule="nonzero"></path>
                    <path d="M24.2439642,112.67936 C24.2439642,112.67936 26.2429178,109.913968 29.5028694,112.187389 C29.5028694,112.187389 27.2061442,114.665367 24.2853932,113.293028 L24.2439642,112.67936 Z" id="Path" stroke="none" fill="#F15A29" fill-rule="nonzero"></path>
                    <path d="M24.218071,109.349497 C24.218071,109.349497 26.2895255,105.825435 29.3267958,107.915014 C29.3267958,107.915014 27.0689103,110.978178 24.2595001,109.986469 L24.218071,109.349497 Z" id="Path" stroke="none" fill="#F15A29" fill-rule="nonzero"></path>
                    <path d="M24.4873601,105.442216 C24.4873601,105.442216 26.6856912,101.933689 29.6659965,104.308094 C29.6659965,104.308094 26.9886414,107.39974 24.5184319,106.053295 L24.4873601,105.442216 Z" id="Path" stroke="none" fill="#F15A29" fill-rule="nonzero"></path>
                    <path d="M25.0621887,101.925921 C25.0621887,101.925921 27.7214185,98.5908796 30.313326,99.6783932 C30.313326,99.6783932 27.5453448,103.215402 24.9974557,102.770039 L25.0621887,101.925921 Z" id="Path" stroke="none" fill="#F15A29" fill-rule="nonzero"></path>
                    <path d="M25.8441628,98.5753437 C25.8441628,98.5753437 28.9021476,94.5075248 30.9114585,95.6597714 C30.9114585,95.6597714 28.6716983,98.805793 25.6551426,99.3158887 L25.8441628,98.5753437 Z" id="Path" stroke="none" fill="#F15A29" fill-rule="nonzero"></path>
                    <path d="M27.0378385,94.6758305 C27.0378385,94.6758305 29.7255508,91.3381993 31.8953994,91.9777609 C31.8953994,91.9777609 29.6349246,95.4034289 26.716763,95.6830753 L27.0378385,94.6758305 Z" id="Path" stroke="none" fill="#F15A29" fill-rule="nonzero"></path>
                    <path d="M28.1098162,91.0223025 C28.1098162,91.0223025 31.110836,87.7986014 32.5401396,88.2336068 C32.5401396,88.2336068 30.4531492,91.7317757 28.0140114,91.7007039 L28.1098162,91.0223025 Z" id="Path" stroke="none" fill="#F15A29" fill-rule="nonzero"></path>
                    <path d="M29.1688474,87.6484209 C29.1688474,87.6484209 31.688254,83.8680163 33.2107731,84.04409 C33.2107731,84.04409 31.7555762,87.3610066 29.1947405,88.0109254 L29.1688474,87.6484209 Z" id="Path" stroke="none" fill="#F15A29" fill-rule="nonzero"></path>
                    <path d="M30.2667183,83.1222927 C30.2667183,83.1222927 32.5194251,80.2015418 33.8373881,80.1186836 C33.8373881,80.1186836 32.1595099,83.93016 30.2252892,84.0259647 L30.2667183,83.1222927 Z" id="Path" stroke="none" fill="#F15A29" fill-rule="nonzero"></path>
                    <path d="M30.890744,80.1135049 L32.8560365,74.2202167 C32.8560365,74.2202167 33.3221137,79.3988531 30.6577053,81.2113759 L30.890744,80.1135049 Z" id="Path" stroke="none" fill="#F15A29" fill-rule="nonzero"></path>
                    <path d="M31.4215542,73.717889 C31.4215542,73.717889 31.4888765,68.8991678 31.2118194,68.526306 C31.2118194,68.526306 33.1641653,72.3973367 31.5458415,75.8385406 L31.4215542,73.717889 Z" id="Path" stroke="none" fill="#F15A29" fill-rule="nonzero"></path>
                    <path d="M26.7400669,124.121557 C26.7400669,124.121557 24.1973564,122.769933 22.8560896,126.581409 C22.8560896,126.581409 25.1269217,127.876068 27.0844462,125.048533 L26.7400669,124.121557 Z" id="Path" stroke="none" fill="#F15A29" fill-rule="nonzero"></path>
                    <path d="M25.3910321,120.051149 C25.3910321,120.051149 22.3019755,118.885956 21.1082998,122.850202 C21.1082998,122.850202 23.5293123,124.282095 25.7276435,121.011786 L25.3910321,120.051149 Z" id="Path" stroke="none" fill="#F15A29" fill-rule="nonzero"></path>
                    <path d="M24.7048628,116.630659 C24.7048628,116.630659 22.3926016,114.266612 19.3268489,116.993164 C19.3268489,116.993164 21.5096441,119.064619 24.7488812,117.27281 L24.7048628,116.630659 Z" id="Path" stroke="none" fill="#F15A29" fill-rule="nonzero"></path>
                    <path d="M24.1714632,112.684539 C24.1714632,112.684539 21.8229516,110.21174 18.8944328,112.899452 C18.8944328,112.899452 21.5018762,115.045997 24.2128923,113.298207 L24.1714632,112.684539 Z" id="Path" stroke="none" fill="#F15A29" fill-rule="nonzero"></path>
                    <path d="M24.2232496,109.434944 C24.2232496,109.434944 22.444388,105.760702 19.2388121,107.606886 C19.2388121,107.606886 21.2533016,110.835765 24.1300341,110.071916 L24.2232496,109.434944 Z" id="Path" stroke="none" fill="#F15A29" fill-rule="nonzero"></path>
                    <path d="M24.6763803,105.408554 C24.6763803,105.408554 22.9026973,101.66699 19.6505137,103.676301 C19.6505137,103.676301 21.9446496,107.060539 24.5572717,106.006687 L24.6763803,105.408554 Z" id="Path" stroke="none" fill="#F15A29" fill-rule="nonzero"></path>
                    <path d="M25.3858535,101.925921 C25.3858535,101.925921 24.502896,97.7519405 21.6986644,97.5629203 C21.6986644,97.5629203 22.5868005,101.964761 25.064778,102.707896 L25.3858535,101.925921 Z" id="Path" stroke="none" fill="#F15A29" fill-rule="nonzero"></path>
                    <path d="M25.9166637,98.577933 C25.9166637,98.577933 25.3470137,93.5209946 23.0166273,93.4951014 C23.0166273,93.4951014 23.3532387,97.3428282 25.6939823,99.3132994 L25.9166637,98.577933 Z" id="Path" stroke="none" fill="#F15A29" fill-rule="nonzero"></path>
                    <path d="M27.2656985,94.5101141 C27.2656985,94.5101141 26.2947042,90.3361332 24.0627119,89.96845 C24.0627119,89.96845 24.6116473,94.0362689 27.1206967,95.558788 L27.2656985,94.5101141 Z" id="Path" stroke="none" fill="#F15A29" fill-rule="nonzero"></path>
                    <path d="M28.3713374,91.0352491 C28.3713374,91.0352491 28.0528512,86.6334082 26.667566,86.0844727 C26.667566,86.0844727 26.1005053,90.1212198 28.0191901,91.6230243 L28.3713374,91.0352491 Z" id="Path" stroke="none" fill="#F15A29" fill-rule="nonzero"></path>
                    <path d="M29.2698308,87.5914559 C29.2698308,87.5914559 28.7778603,83.075685 27.343378,82.5319281 C27.343378,82.5319281 27.1077501,86.1569736 29.0808105,87.9021741 L29.2698308,87.5914559 Z" id="Path" stroke="none" fill="#F15A29" fill-rule="nonzero"></path>
                    <path d="M30.4816317,83.4692613 C30.4816317,83.4692613 30.2226999,79.7898402 29.1869726,78.9897409 C29.1869726,78.9897409 28.4697314,83.0912209 30.0233224,84.2434675 L30.4816317,83.4692613 Z" id="Path" stroke="none" fill="#F15A29" fill-rule="nonzero"></path>
                    <path d="M30.761278,79.9400206 L29.3837608,73.8758374 C29.3837608,73.8758374 28.4075878,78.9871515 30.8803867,81.0430702 L30.761278,79.9400206 Z" id="Path" stroke="none" fill="#F15A29" fill-rule="nonzero"></path>
                    <path d="M30.541186,73.8369976 C30.541186,73.8369976 27.7835621,69.8831088 27.8042767,69.4196208 C27.8042767,69.4196208 28.3558014,73.7204783 31.623521,75.662467 L30.541186,73.8369976 Z" id="Path" stroke="none" fill="#F15A29" fill-rule="nonzero"></path>
                    <path d="M30.7483315,72.5993035 C30.7483315,72.5993035 28.0140114,66.9028035 26.9239085,66.5014592 C26.9239085,66.5014592 30.3832376,67.9773706 30.932173,72.4206406 L30.7483315,72.5993035 Z" id="Path" stroke="none" fill="#F15A29" fill-rule="nonzero"></path>
                    <path d="M30.2123426,84.0596259 L30.0492155,84.0207861 C31.6028065,77.4465072 31.8099519,73.3010088 30.6602946,72.350729 L30.7664567,72.2212631 C31.9860256,73.2310972 31.794416,77.3273986 30.2123426,84.0596259 Z" id="Path" stroke="none" fill="#444053" fill-rule="nonzero"></path>
                    <path d="M25.7871978,99.5074982 L25.5438019,99.4375866 C25.7146969,98.8342755 25.9011278,98.2206071 26.097916,97.6250639 C27.8146339,92.3454441 29.2491162,87.4490434 30.1268951,83.7023 L30.3262726,83.5831913 C29.4459044,87.3377027 28.0554405,92.417945 26.3361333,97.7027434 C26.1393451,98.3008759 25.9555035,98.9041871 25.7871978,99.5074982 Z" id="Path" stroke="none" fill="#444053" fill-rule="nonzero"></path>
                    <path d="M33.1512187,134.634189 C33.1175576,134.600528 29.6737644,131.21111 27.0274812,125.203892 C25.4785928,121.688181 24.4954547,117.949635 24.1144982,114.126789 C23.640653,109.346907 24.2879826,103.930054 25.6836251,98.9559735 L25.8830026,99.1631189 C22.7525169,110.32567 24.9145976,119.566946 27.3278421,125.056301 C29.9482321,131.011733 33.3505962,134.359721 33.3868467,134.393382 L33.1512187,134.634189 Z" id="Path" stroke="none" fill="#444053" fill-rule="nonzero"></path>
                    <path d="M40.9398879,147.58078 C40.275365,147.698815 39.6246518,147.884486 38.9978992,148.134894 C25.0311169,153.712285 25.2641555,190.221672 25.2641555,190.221672 L21.1523182,190.221672 C21.1523182,190.221672 19.8576591,174.553707 14.2155348,152.200123 C9.13270317,132.088889 29.979304,114.064645 34.2128392,110.646745 C34.6892737,110.266115 34.9533842,110.064149 34.9533842,110.064149 C55.9501654,117.780317 40.9398879,147.58078 40.9398879,147.58078 Z" id="Path" stroke="none" fill="#2F2E41" fill-rule="nonzero"></path>
                    <path d="M36.4810819,110.698531 C35.9968794,110.47585 35.497141,110.263526 34.9663308,110.069327 C34.9663308,110.069327 34.707399,110.271294 34.2257858,110.651924 C29.9922505,114.069824 9.14564976,132.094068 14.2284814,152.205302 C19.8706057,174.558886 21.1523182,190.221672 21.1523182,190.221672 L23.4645794,190.221672 C23.4645794,190.221672 22.1828669,174.553707 16.5277959,152.200123 C11.4656789,132.182105 32.1103128,114.225183 36.4810819,110.698531 Z" id="Path" stroke="none" fill="#FFFFFF" fill-rule="nonzero" opacity="0.2"></path>
                    <path d="M110.214507,152.205302 C104.559436,174.558886 103.285491,190.221672 103.285491,190.221672 L99.1658861,190.221672 C99.1658861,190.221672 99.4248179,152.065479 84.476684,147.806051 C84.1529284,147.708885 83.8234508,147.631921 83.4901538,147.575601 C83.4901538,147.575601 68.4721082,117.775138 89.4766574,110.064149 C89.4766574,110.064149 89.6889815,110.222097 90.0722006,110.530226 C93.9639459,113.645176 115.354303,131.861029 110.214507,152.205302 Z" id="Path" stroke="none" fill="#2F2E41" fill-rule="nonzero"></path>
                    <path d="M40.9398879,147.58078 C40.275365,147.698815 39.6246518,147.884486 38.9978992,148.134894 C36.472769,135.776984 34.8733083,123.247875 34.2128392,110.651924 C34.6892737,110.271294 34.9533842,110.069327 34.9533842,110.069327 C55.9501654,117.780317 40.9398879,147.58078 40.9398879,147.58078 Z" id="Path" stroke="none" fill="#000000" fill-rule="nonzero" opacity="0.1"></path>
                    <path d="M90.0799686,110.535404 C89.223812,123.094741 87.3525304,135.564178 84.484452,147.821586 C84.1606963,147.724421 83.8312187,147.647457 83.4979217,147.591137 C83.4979217,147.591137 68.4798762,117.790674 89.4844254,110.079684 C89.4766574,110.069327 89.6889815,110.227276 90.0799686,110.535404 Z" id="Path" stroke="none" fill="#000000" fill-rule="nonzero" opacity="0.1"></path>
                    <path d="M82.3922829,153.230672 C80.9422647,158.951339 79.2428088,164.82046 77.2939153,170.838036 C77.2939153,170.838036 68.0448707,180.472889 45.7042333,170.838036 C45.7042333,170.838036 43.4722411,164.545993 41.0175674,153.849519 C35.6136603,130.330742 29.1325969,85.5122334 42.9414308,39.4767452 C47.0535366,25.6375547 52.898192,12.3735452 60.3364705,0 C60.3364705,0 72.1334042,13.5447235 80.7920842,39.4689772 C89.4507643,65.393231 94.9608334,103.702194 82.3922829,153.230672 Z" id="Path" stroke="none" fill="#E3E8F4" fill-rule="nonzero"></path>
                    <circle id="Oval" stroke="none" fill="#AFC0E0" fill-rule="nonzero" cx="62.2137262" cy="76.0223822" r="18.5472862"></circle>
                    <path d="M75.3674626,76.0327395 C75.3674626,81.1170551 72.4370845,85.7460218 67.8416438,87.9213816 C63.2462031,90.0967414 57.8085816,89.4289062 53.8761216,86.2061707 C52.935748,85.4317629 52.1063054,84.531748 51.4110907,83.531405 C51.098892,83.0845348 50.8152285,82.6183928 50.5617943,82.1357625 C49.5753121,80.2528046 49.0608329,78.1584568 49.0625746,76.0327395 C49.0625746,75.9265774 49.0625746,75.8230047 49.0625746,75.719432 C49.2010303,69.9454582 53.0855483,64.9354798 58.6430564,63.3632055 C59.6768206,63.0783002 60.7406491,62.91664 61.8123818,62.8815901 L62.2059582,62.8815901 C65.6954431,62.8795316 69.0427509,64.2641024 71.5111608,66.7305699 C73.9795707,69.1970373 75.3667763,72.543254 75.3674626,76.0327395 L75.3674626,76.0327395 Z" id="Path" stroke="none" fill="#F15A29" fill-rule="nonzero"></path>
                    <path d="M80.7894949,39.4689772 C59.7461059,49.5440143 42.9284842,39.4689772 42.9284842,39.4689772 C47.0452909,25.631848 52.8942921,12.3704578 60.3364705,0 C60.3364705,0 72.1334042,13.5447235 80.7894949,39.4689772 Z" id="Path" stroke="none" fill="#2F2E41" fill-rule="nonzero"></path>
                    <path d="M82.3922829,153.230672 C81.4083419,157.104292 80.3121972,161.044371 79.1038487,165.05091 C78.5307463,166.961827 77.9265721,168.888279 77.291326,170.830268 C77.291326,170.830268 68.0422814,180.465121 45.701644,170.830268 C45.701644,170.830268 44.9766349,168.787296 43.8891213,165.05091 C43.0760754,162.228553 42.063652,158.445559 41.0072101,153.841751 C41.0072101,153.841751 49.3241002,157.391706 61.1288018,157.391706 C68.4213155,157.416692 75.6471111,156.002682 82.3922829,153.230672 Z" id="Path" stroke="none" fill="#2F2E41" fill-rule="nonzero"></path>
                    <path d="M79.1038487,165.05091 C78.5307463,166.961827 77.9265721,168.888279 77.291326,170.830268 C77.291326,170.830268 68.0422814,180.465121 45.701644,170.830268 C45.701644,170.830268 44.9766349,168.787296 43.8891213,165.05091 C43.886532,165.05091 66.6569962,171.601885 79.1038487,165.05091 Z" id="Path" stroke="none" fill="#E3E8F4" fill-rule="nonzero"></path>
                    <path d="M58.6508243,63.3450803 L58.6223418,63.3657949 L49.0677533,75.7013067 C49.0677533,75.8048795 49.0677533,75.9084522 49.0677533,76.0146142 C49.0660116,78.1403316 49.5804907,80.2346794 50.5669729,82.1176372 L61.8253284,62.8634671 L58.6508243,63.3450803 Z" id="Path" stroke="none" fill="#FFFFFF" fill-rule="nonzero" opacity="0.2"></path>
                    <path d="M61.7010412,74.4791486 L53.8761216,86.1958134 C52.935748,85.4214056 52.1063054,84.5213907 51.4110907,83.5210477 L60.7326362,73.5159222 L61.7010412,74.4791486 Z" id="Path" stroke="none" fill="#FFFFFF" fill-rule="nonzero" opacity="0.2"></path>
                    <path d="M50.7016175,170.832857 C50.7016175,170.832857 48.4696252,164.538225 46.0149515,153.844341 C40.6110445,130.322974 34.129981,85.5044654 47.938815,39.4689772 C51.6507194,27.0128154 56.7627377,15.0175969 63.1769525,3.71308229 C61.4239841,1.25581932 60.3287025,0.00258931819 60.3287025,0.00258931819 C52.8892478,12.3725331 47.0428585,25.6330487 42.9284842,39.4689772 C29.1196503,85.5044654 35.6007138,130.322974 41.0046208,153.844341 C43.4592945,164.538225 45.6912868,170.832857 45.6912868,170.832857 C54.5182725,174.636566 61.2996968,175.434076 66.2763664,175.009427 C62.0247059,174.685763 56.8616055,173.486908 50.7016175,170.832857 Z" id="Path" stroke="none" fill="#FFFFFF" fill-rule="nonzero" opacity="0.2"></path>
                    <path d="M222.316449,188.743171 C222.316449,188.743171 234.418922,173.683697 233.616233,158.600918 C233.239558,152.277903 234.924052,146.0033 238.416829,140.719087 C240.097843,138.219379 242.00467,135.879183 244.113329,133.727927" id="Path" stroke="#535461" stroke-width="0.563819095" fill="none"></path>
                    <path d="M243.65502,124.230308 C242.790188,126.330245 244.084847,133.986859 244.084847,133.986859 C244.084847,133.986859 250.395015,129.460731 251.259848,127.360794 C252.124307,125.260779 251.122692,122.857597 249.022677,121.993137 C246.922662,121.128678 244.51948,122.130293 243.65502,124.230308 L243.65502,124.230308 Z" id="Path" stroke="none" fill="#F15A29" fill-rule="nonzero"></path>
                    <path d="M232.577917,133.277386 C232.994797,135.509378 238.243345,141.231772 238.243345,141.231772 C238.243345,141.231772 241.091595,134.004985 240.664358,131.770403 C240.248216,129.537394 238.100654,128.064532 235.867646,128.480674 C233.634637,128.896816 232.161775,131.044377 232.577917,133.277386 L232.577917,133.277386 Z" id="Path" stroke="none" fill="#F15A29" fill-rule="nonzero"></path>
                    <path d="M224.670139,153.272101 C226.156408,154.988819 233.577394,157.280366 233.577394,157.280366 C233.577394,157.280366 232.37595,149.608216 230.889681,147.888909 C229.389258,146.230815 226.838813,146.075783 225.148601,147.53993 C223.458389,149.004076 223.248135,151.550564 224.675318,153.272101 L224.670139,153.272101 Z" id="Path" stroke="none" fill="#F15A29" fill-rule="nonzero"></path>
                    <path d="M222.093767,169.747933 C223.266729,171.692511 230.193155,175.203626 230.193155,175.203626 C230.193155,175.203626 230.307085,167.435672 229.134124,165.493683 C228.374175,164.236045 227.001012,163.479366 225.53189,163.508682 C224.062769,163.537997 222.720885,164.348853 222.011712,165.635807 C221.302539,166.922761 221.333819,168.490294 222.093767,169.747933 Z" id="Path" stroke="none" fill="#F15A29" fill-rule="nonzero"></path>
                    <path d="M246.060497,144.926729 C243.952792,145.768257 236.309124,144.395918 236.309124,144.395918 C236.309124,144.395918 240.897396,138.132358 243.00769,137.28824 C245.117001,136.445231 247.510329,137.471771 248.353338,139.581081 C249.196347,141.690392 248.169807,144.08372 246.060497,144.926729 L246.060497,144.926729 Z" id="Path" stroke="none" fill="#F15A29" fill-rule="nonzero"></path>
                    <path d="M242.803134,164.157595 C240.54007,164.331079 233.657662,160.734516 233.657662,160.734516 C233.657662,160.734516 239.908277,156.128119 242.17393,155.954635 C244.409289,155.830098 246.33395,157.515752 246.505175,159.74802 C246.6764,161.980288 245.031337,163.939756 242.803134,164.157595 L242.803134,164.157595 Z" id="Path" stroke="none" fill="#F15A29" fill-rule="nonzero"></path>
                    <path d="M237.072973,182.412288 C234.869463,182.966402 227.479549,180.58423 227.479549,180.58423 C227.479549,180.58423 232.862742,174.988713 235.066252,174.437188 C236.490866,174.078722 237.998504,174.507508 239.021252,175.562027 C240.044,176.616546 240.426479,178.136592 240.024613,179.549577 C239.622746,180.962563 238.497588,182.053822 237.072973,182.412288 L237.072973,182.412288 Z" id="Path" stroke="none" fill="#F15A29" fill-rule="nonzero"></path>
                    <path d="M243.65502,124.230308 C242.790188,126.330245 244.084847,133.986859 244.084847,133.986859 C244.084847,133.986859 250.395015,129.460731 251.259848,127.360794 C252.124307,125.260779 251.122692,122.857597 249.022677,121.993137 C246.922662,121.128678 244.51948,122.130293 243.65502,124.230308 L243.65502,124.230308 Z" id="Path" stroke="none" fill="#000000" fill-rule="nonzero" opacity="0.25"></path>
                    <path d="M232.577917,133.277386 C232.994797,135.509378 238.243345,141.231772 238.243345,141.231772 C238.243345,141.231772 241.091595,134.004985 240.664358,131.770403 C240.248216,129.537394 238.100654,128.064532 235.867646,128.480674 C233.634637,128.896816 232.161775,131.044377 232.577917,133.277386 L232.577917,133.277386 Z" id="Path" stroke="none" fill="#000000" fill-rule="nonzero" opacity="0.25"></path>
                    <path d="M224.670139,153.272101 C226.156408,154.988819 233.577394,157.280366 233.577394,157.280366 C233.577394,157.280366 232.37595,149.608216 230.889681,147.888909 C229.389258,146.230815 226.838813,146.075783 225.148601,147.53993 C223.458389,149.004076 223.248135,151.550564 224.675318,153.272101 L224.670139,153.272101 Z" id="Path" stroke="none" fill="#000000" fill-rule="nonzero" opacity="0.25"></path>
                    <path d="M222.093767,169.747933 C223.266729,171.692511 230.193155,175.203626 230.193155,175.203626 C230.193155,175.203626 230.307085,167.435672 229.134124,165.493683 C228.374175,164.236045 227.001012,163.479366 225.53189,163.508682 C224.062769,163.537997 222.720885,164.348853 222.011712,165.635807 C221.302539,166.922761 221.333819,168.490294 222.093767,169.747933 Z" id="Path" stroke="none" fill="#000000" fill-rule="nonzero" opacity="0.25"></path>
                    <path d="M246.060497,144.926729 C243.952792,145.768257 236.309124,144.395918 236.309124,144.395918 C236.309124,144.395918 240.897396,138.132358 243.00769,137.28824 C245.117001,136.445231 247.510329,137.471771 248.353338,139.581081 C249.196347,141.690392 248.169807,144.08372 246.060497,144.926729 L246.060497,144.926729 Z" id="Path" stroke="none" fill="#000000" fill-rule="nonzero" opacity="0.25"></path>
                    <path d="M242.803134,164.157595 C240.54007,164.331079 233.657662,160.734516 233.657662,160.734516 C233.657662,160.734516 239.908277,156.128119 242.17393,155.954635 C244.409289,155.830098 246.33395,157.515752 246.505175,159.74802 C246.6764,161.980288 245.031337,163.939756 242.803134,164.157595 L242.803134,164.157595 Z" id="Path" stroke="none" fill="#000000" fill-rule="nonzero" opacity="0.25"></path>
                    <path d="M237.072973,182.412288 C234.869463,182.966402 227.479549,180.58423 227.479549,180.58423 C227.479549,180.58423 232.862742,174.988713 235.066252,174.437188 C236.490866,174.078722 237.998504,174.507508 239.021252,175.562027 C240.044,176.616546 240.426479,178.136592 240.024613,179.549577 C239.622746,180.962563 238.497588,182.053822 237.072973,182.412288 L237.072973,182.412288 Z" id="Path" stroke="none" fill="#000000" fill-rule="nonzero" opacity="0.25"></path>
                    <path d="M222.4252,188.113967 C222.4252,188.113967 239.59238,179.248141 244.970394,165.136357 C247.18749,159.20176 251.27086,154.147068 256.60679,150.73198 C259.151981,149.129093 261.838872,147.763112 264.633676,146.651215" id="Path" stroke="#535461" stroke-width="0.563819095" fill="none"></path>
                    <path d="M268.07488,137.777621 C266.433252,139.349337 264.514567,146.873896 264.514567,146.873896 C264.514567,146.873896 272.116806,145.291823 273.758433,143.722696 C275.40298,142.153226 275.463842,139.54775 273.894372,137.903203 C272.324902,136.258656 269.719427,136.197794 268.07488,137.767264 L268.07488,137.777621 Z" id="Path" stroke="none" fill="#F15A29" fill-rule="nonzero"></path>
                    <path d="M254.284171,141.560615 C253.766308,143.771893 256.239106,151.141092 256.239106,151.141092 C256.239106,151.141092 261.751765,145.685399 262.285164,143.461175 C262.801108,141.255342 261.435715,139.047721 259.231676,138.524173 C257.027636,138.000624 254.815319,139.358394 254.284171,141.560615 L254.284171,141.560615 Z" id="Path" stroke="none" fill="#F15A29" fill-rule="nonzero"></path>
                    <path d="M238.950229,156.635626 C239.613094,158.808064 245.470132,163.90902 245.470132,163.90902 C245.470132,163.90902 247.482032,156.399998 246.819167,154.237917 C246.390857,152.832267 245.245178,151.761892 243.813694,151.429994 C242.38221,151.098096 240.882399,151.555096 239.879225,152.628848 C238.876051,153.7026 238.521919,155.229975 238.950229,156.635626 L238.950229,156.635626 Z" id="Path" stroke="none" fill="#F15A29" fill-rule="nonzero"></path>
                    <path d="M229.918687,170.654194 C230.203512,172.90949 235.112859,178.924477 235.112859,178.924477 C235.112859,178.924477 238.365043,171.873763 238.077629,169.618467 C237.79162,167.365437 235.733324,165.770852 233.480294,166.05686 C231.227265,166.342868 229.632679,168.401165 229.918687,170.654194 L229.918687,170.654194 Z" id="Path" stroke="none" fill="#F15A29" fill-rule="nonzero"></path>
                    <path d="M261.888999,157.673942 C259.618167,157.591084 253.18889,153.23844 253.18889,153.23844 C253.18889,153.23844 259.921117,149.372588 262.191949,149.455446 C263.660042,149.509563 264.987745,150.342787 265.674925,151.641251 C266.362104,152.939716 266.304362,154.506152 265.523449,155.750499 C264.742536,156.994847 263.357092,157.728059 261.888999,157.673942 L261.888999,157.673942 Z" id="Path" stroke="none" fill="#F15A29" fill-rule="nonzero"></path>
                    <path d="M251.117435,173.93486 C248.976069,173.17619 244.141812,167.09906 244.141812,167.09906 C244.141812,167.09906 251.725925,165.423772 253.864702,166.182442 C255.249538,166.673194 256.267366,167.865468 256.534781,169.310148 C256.802195,170.754827 256.278569,172.23243 255.161147,173.186357 C254.043726,174.140284 252.502271,174.425612 251.117435,173.93486 Z" id="Path" stroke="none" fill="#F15A29" fill-rule="nonzero"></path>
                    <path d="M238.478973,188.302987 C236.241802,187.917179 230.452087,182.743721 230.452087,182.743721 C230.452087,182.743721 237.642623,179.812613 239.879794,180.198421 C242.117808,180.584532 243.619072,182.711806 243.232961,184.94982 C242.84685,187.187834 240.719576,188.689098 238.481562,188.302987 L238.478973,188.302987 Z" id="Path" stroke="none" fill="#F15A29" fill-rule="nonzero"></path>
                    <path d="M246.835743,179.791898 L233.528197,160.49371 C233.528197,160.49371 233.269265,155.716418 232.409611,154.600421 C231.549957,153.484425 232.22318,151.001269 232.22318,151.001269 C232.22318,151.001269 233.155335,149.636698 232.347467,149.512411 C231.5396,149.388124 232.22318,146.345675 232.22318,146.345675 L232.161037,141.506239 C232.161037,141.506239 232.90676,136.845467 232.285324,135.737238 C231.913713,135.12061 231.938032,134.34342 232.347467,133.751231 C232.347467,133.751231 233.093191,131.081644 232.347467,130.400654 C231.601744,129.719663 231.788175,125.558629 231.974606,122.270194 C232.161037,118.98176 230.667,117.120041 230.667,116.622891 C230.667,116.125742 225.747295,111.286307 225.747295,110.853891 C225.747295,110.421474 222.640114,108.619309 220.773215,108.12216 C218.906317,107.625011 217.974162,107.254738 218.036306,107.006164 C218.098449,106.757589 215.112966,105.76588 215.112966,105.76588 C215.112966,105.76588 212.500344,105.579449 211.503456,104.274433 C210.506568,102.969417 207.466709,102.596555 207.378672,102.583608 C207.360547,102.498161 207.339832,102.410124 207.321707,102.324676 C207.303582,102.239229 207.282867,102.138246 207.264742,102.04503 C207.50037,101.648864 207.717873,101.244931 207.914661,100.828051 C207.974215,100.701174 208.03118,100.569119 208.085556,100.45001 C209.175659,100.400813 210.294244,100.167774 211.148719,99.4997303 C212.036109,98.7574008 212.575343,97.6798701 212.637577,96.5246037 C212.690318,95.377587 212.439329,94.2369735 211.909979,93.2180443 C211.366222,92.0994589 210.566123,90.9420336 210.840591,89.7302327 C210.962288,89.2123691 211.275596,88.7462918 211.436134,88.2336068 C211.739084,87.2626125 211.459438,86.1958134 210.988182,85.2947307 C210.516926,84.3936479 209.861828,83.6013166 209.338786,82.7287163 C208.67067,81.6167347 208.224825,80.3856035 208.026002,79.1036709 C207.91984,78.4304481 207.878411,77.7209749 207.53921,77.1280211 C207.258046,76.6880041 206.886445,76.3128726 206.449107,76.0275608 C204.503596,74.6360715 202.154178,73.9236027 199.763487,74.0001247 C198.070073,74.059679 196.381838,74.5179883 194.70137,74.3082536 C193.688947,74.1839663 192.723131,73.8240511 191.744369,73.5314581 C189.657378,72.9152004 187.251902,72.6614472 185.4342,73.8551229 C183.616499,75.0487986 182.894079,77.3973102 181.664153,79.2331368 C180.576639,80.8592286 178.981619,82.22121 178.153038,83.9405172 C178.153038,83.9094454 178.168574,83.8757843 178.178931,83.8421231 C177.97525,84.2399936 177.819659,84.6606972 177.715443,85.0953532 C177.399546,86.4469773 177.663657,87.860745 177.9925,89.2097798 C178.160806,89.9063064 178.393844,90.6623873 178.997155,91.0481957 C179.600467,91.4340041 180.454942,91.3485566 181.169593,91.4754332 C181.1437,91.5919525 181.112628,91.7110611 181.086735,91.8301698 C179.55205,99.0804289 183.844826,106.293284 190.949448,108.401806 C190.949448,108.528683 190.949448,108.660738 190.949448,108.779847 C190.948105,109.136386 190.926492,109.49256 190.884715,109.846646 L190.884715,109.846646 C190.884715,109.846646 184.631512,108.551987 182.951044,109.432355 C181.270577,110.312723 177.974375,110.985946 177.477226,111.477916 C176.980077,111.969887 175.737204,111.602204 174.628976,114.520365 C173.520747,117.438527 173.386103,120.413653 171.95421,121.770456 C170.522317,123.127259 169.779183,124.067181 169.717039,125.061479 C169.654895,126.055778 169.90347,126.301763 169.341588,126.61507 C168.779706,126.928378 167.974428,128.228216 168.223002,128.725365 C168.223002,128.725365 168.533721,129.965648 167.539422,130.584495 C166.545124,131.203342 166.666822,132.446215 166.666822,132.446215 C166.666822,132.446215 166.29396,133.813375 165.423949,134.121504 C164.553938,134.429633 163.992056,136.480373 163.992056,136.480373 L161.161932,139.729967 L155.571594,133.541497 C154.699871,132.575742 153.210401,132.49924 152.24432,133.370602 L149.499643,135.84599 C148.440199,136.102889 147.482797,136.673179 146.752376,137.482439 C146.154234,138.096596 145.672576,138.814257 145.33084,139.600501 L143.826446,140.952125 C142.859699,142.150958 142.707571,143.81313 143.440638,145.167535 L147.021665,149.126603 L147.044969,149.160264 C145.690755,149.331159 144.49449,149.766164 143.580461,150.571442 C138.233519,155.286591 138.168786,159.634056 138.979243,161.614884 C139.789699,163.595713 146.565945,171.234202 146.565945,171.234202 C146.565945,171.234202 150.504298,176.353284 156.190441,179.077246 L156.190441,179.077246 L156.146422,179.121265 C156.035082,179.240373 155.923741,179.380197 155.81499,179.509662 L155.721774,179.628771 L155.636327,179.74788 L155.535343,179.89806 C155.506861,179.9369 155.480968,179.978329 155.455074,180.019758 C155.429181,180.061187 155.382573,180.136277 155.348912,180.198421 L155.279001,180.31753 C155.237572,180.395209 155.193553,180.475478 155.152124,180.558336 L155.110695,180.638605 C155.058909,180.747357 155.007122,180.858697 154.957925,180.975217 C154.9398,181.016646 154.924264,181.060664 154.906139,181.102093 C154.875067,181.182362 154.841406,181.26522 154.810334,181.361025 C154.779262,181.45683 154.771494,181.467187 154.753369,181.521563 C154.735244,181.575938 154.698993,181.6821 154.6731,181.764959 C154.647207,181.847817 154.63685,181.881478 154.621314,181.938443 C154.605778,181.995408 154.569528,182.119695 154.546224,182.212911 C154.52292,182.306126 154.517741,182.321662 154.502205,182.381216 C154.468544,182.523629 154.434883,182.67122 154.4064,182.826579 C154.4064,182.883544 154.385686,182.943098 154.375329,183.002653 C154.354614,183.106225 154.336489,183.212388 154.320953,183.321139 C154.308006,183.396229 154.300238,183.471319 154.289881,183.54641 C154.279524,183.6215 154.263988,183.750966 154.251041,183.854538 L154.227738,184.092756 C154.227738,184.206686 154.207023,184.325794 154.199255,184.444903 C154.199255,184.517404 154.199255,184.589905 154.186308,184.662406 C154.186308,184.859194 154.165594,185.055982 154.163005,185.263128 C154.038717,192.513218 154.463365,193.577428 154.463365,193.577428 C154.463365,193.577428 155.341144,195.889689 157.764746,196.055406 C158.120465,196.081461 158.478051,196.06232 158.828956,195.998441 C162.063014,195.439148 169.649717,194.136721 172.324482,194.63387 C173.932449,194.931642 176.910165,194.491458 179.030817,194.090113 L179.58752,193.983951 L179.975918,195.216467 L181.205844,194.879855 L182.241571,195.483166 L182.901847,195.861207 C184.129184,200.024831 189.116211,198.605884 189.116211,198.605884 L190.286583,199.284286 L202.290662,199.595004 C202.290662,199.595004 204.87998,201.148595 206.539733,201.635386 C206.737078,201.695098 206.938799,201.739252 207.143044,201.767442 C208.25585,201.856683 209.37309,201.877437 210.488443,201.829585 C211.407651,201.806281 212.119714,201.767442 212.119714,201.767442 C212.119714,201.767442 211.998016,198.50749 211.821942,194.859141 C216.410214,194.667531 220.478033,194.380117 222.940474,193.947701 C229.351626,192.821347 232.026392,186.992792 233.010333,183.877842 C233.306033,185.150988 233.516237,186.442489 233.639537,187.743694 C233.900799,188.88047 234.23376,189.999567 234.636425,191.094272 C234.986525,191.97509 235.445838,192.808464 236.003585,193.574839 C240.73168,191.961694 237.870483,189.54327 236.873596,188.486829 C235.876708,187.430387 237.559765,186.562965 237.559765,186.562965 C237.559765,186.562965 238.854424,185.695544 238.740494,184.887676 C238.626564,184.079809 238.554063,183.212388 242.78242,183.274531 C247.010776,183.336675 246.835743,179.791898 246.835743,179.791898 Z M181.154057,140.17533 C181.208433,140.530066 181.798798,144.354489 182.332197,145.353966 C182.443538,145.56629 182.487556,146.319782 182.47202,147.396938 C179.96556,147.197561 177.355528,147.091399 177.355528,147.091399 C177.430653,147.18207 177.477475,147.292821 177.490172,147.409885 L177.096596,147.321848 L176.524357,147.182025 L181.141111,140.159794 L181.154057,140.17533 Z M172.008586,154.727298 L176.345694,155.416057 L176.710787,155.473022 C176.58644,156.149418 176.511153,156.833919 176.485517,157.521172 C176.485517,157.585905 176.583911,157.663585 176.723734,157.754211 C176.663123,158.096047 176.634517,158.442791 176.638287,158.789938 C176.708198,159.134318 178.735634,159.874863 181.060842,160.49112 C181.02977,160.615408 180.998698,160.734516 180.967627,160.845857 L180.967627,160.845857 C178.914297,159.766111 175.677649,159.261194 175.304788,158.458506 C174.931926,157.655817 163.911788,153.797733 163.911788,153.797733 C163.911788,153.797733 163.510443,153.585409 162.816506,153.248797 L165.716542,153.797733 L166.514052,153.717464 C168.322136,154.169774 170.157434,154.505351 172.008586,154.722119 L172.008586,154.727298 Z" id="Shape" stroke="none" fill="url(#linearGradient-3)" fill-rule="nonzero"></path>
                    <path d="M232.676311,182.492557 C232.676311,182.492557 230.951825,192.909384 222.19734,194.450028 C213.442855,195.990673 184.222399,195.682544 184.222399,195.682544 C184.222399,195.682544 167.516119,193.279657 161.475239,179.162694 C155.43436,165.045731 151.550383,159.434679 156.729019,159.188693 C161.907655,158.942708 189.833452,168.621579 191.425883,168.743277 C193.018313,168.864975 234.216955,147.290776 232.676311,182.492557 Z" id="Path" stroke="none" fill="#434175" fill-rule="nonzero"></path>
                    <path d="M232.676311,182.492557 C232.676311,182.492557 230.951825,192.909384 222.19734,194.450028 C213.442855,195.990673 184.222399,195.682544 184.222399,195.682544 C184.222399,195.682544 167.516119,193.279657 161.475239,179.162694 C155.43436,165.045731 151.550383,159.434679 156.729019,159.188693 C161.907655,158.942708 189.833452,168.621579 191.425883,168.743277 C193.018313,168.864975 234.216955,147.290776 232.676311,182.492557 Z" id="Path" stroke="none" fill="#000000" fill-rule="nonzero" opacity="0.05"></path>
                    <path d="M154.313185,194.079756 C154.313185,194.079756 155.185785,196.379071 157.586083,196.542198 C157.93837,196.567025 158.292378,196.547889 158.639936,196.485233 C161.845512,195.931118 169.367481,194.636459 172.016354,195.12843 C173.611374,195.426201 176.560607,194.986017 178.660544,194.589852 C180.058776,194.33092 181.078967,194.071988 181.078967,194.071988 C181.078967,194.071988 178.613936,185.874207 178.303218,185.628221 C177.9925,185.382236 167.20799,178.908941 167.20799,178.908941 L158.66324,178.295272 L158.637346,178.295272 C158.637346,178.295272 157.055273,178.401434 155.742489,179.996454 C154.838817,181.086557 154.06461,182.878365 154.012824,185.814652 C153.893715,193.031082 154.313185,194.079756 154.313185,194.079756 Z" id="Path" stroke="none" fill="#565387" fill-rule="nonzero"></path>
                    <path d="M154.313185,194.079756 C154.313185,194.079756 155.185785,196.379071 157.586083,196.542198 C156.743776,195.459761 155.965646,194.328878 155.255697,193.155369 L155.299715,187.176634 C154.919085,182.699703 157.013844,179.833327 158.665829,178.30304 L158.639936,178.30304 C158.639936,178.30304 154.139701,178.60858 154.015413,185.812063 C153.891126,193.015546 154.313185,194.079756 154.313185,194.079756 Z" id="Path" stroke="none" fill="#000000" fill-rule="nonzero" opacity="0.05"></path>
                    <path d="M191.374096,181.011467 L199.325893,174.797103 L211.840067,162.46677 C211.840067,162.46677 210.488443,162.402037 208.45065,162.314 C207.932786,162.637665 206.521608,163.655267 206.469821,164.903319 C206.407678,166.410302 203.085583,165.006891 201.361097,165.869134 C199.636611,166.731377 191.190255,177.541781 189.709165,177.471869 C188.228075,177.401957 187.060292,176.720967 186.441445,177.769641 C186.441445,177.792945 186.412963,177.813659 186.397427,177.836963 L191.374096,181.011467 Z" id="Path" stroke="none" fill="#000000" fill-rule="nonzero" opacity="0.1"></path>
                    <path d="M155.745078,180.001633 C156.027314,180.138867 156.312139,180.260565 156.604732,180.395209 C162.6482,182.984528 170.105437,188.422096 170.66214,189.395679 C170.998751,189.996401 175.322913,192.62197 178.660544,194.589852 C180.058776,194.33092 181.078967,194.071988 181.078967,194.071988 C181.078967,194.071988 178.613936,185.874207 178.303218,185.628221 C177.9925,185.382236 167.20799,178.908941 167.20799,178.908941 L158.66324,178.295272 L158.637346,178.295272 C158.637346,178.295272 157.057862,178.406613 155.745078,180.001633 Z" id="Path" stroke="none" fill="#000000" fill-rule="nonzero" opacity="0.1"></path>
                    <path d="M138.976653,162.332126 C139.776753,164.305186 146.485676,171.889299 146.485676,171.889299 C146.485676,171.889299 150.737337,177.435619 156.780805,180.024937 C162.824274,182.614255 170.28151,188.051823 170.835624,189.025407 C171.19295,189.65979 176.014261,192.559826 179.401089,194.553601 L180.159759,194.996375 L181.842816,195.972548 L182.733542,196.490411 C182.733542,196.490411 184.804996,194.833248 186.853147,193.165727 C188.901297,191.498206 190.900251,189.864346 190.933912,189.77113 C190.993467,189.587289 191.793566,187.489941 191.609724,187.368243 C191.51392,187.30351 191.091861,186.449035 190.315065,185.459916 C189.486035,184.362086 188.41002,183.475017 187.174222,182.870598 C184.325972,181.575938 183.106403,178.629294 183.106403,178.629294 C183.106403,178.629294 182.847472,178.432506 182.425413,178.173574 C181.695225,177.712676 180.522264,177.04981 179.654842,176.93847 C178.29545,176.767575 175.770865,173.994415 175.770865,173.994415 C175.770865,173.994415 174.04379,172.883597 173.365388,171.46724 C172.718059,170.115616 163.158296,163.549105 162.272749,162.943205 L185.449736,177.826606 L190.996056,181.392097 L198.947852,175.177733 L211.464616,162.8474 C211.464616,162.8474 209.781559,162.764542 207.321707,162.660969 C201.239399,162.402037 190.436763,161.985157 189.072192,162.293286 C187.961242,162.552155 186.815274,162.626511 185.680186,162.513378 C185.680186,162.513378 182.604076,162.653201 180.568872,161.578634 C178.533667,160.504067 175.325502,160.001739 174.95523,159.206819 C174.584957,158.411898 163.67357,154.584886 163.67357,154.584886 C163.67357,154.584886 148.818652,146.695233 143.515728,151.381899 C138.212804,156.068565 138.173965,160.361654 138.976653,162.332126 Z" id="Path" stroke="none" fill="#434175" fill-rule="nonzero"></path>
                    <path d="M186.873861,117.086379 L188.784778,123.435388 L191.249809,137.736192 L200.312423,138.35245 L202.935402,134.002395 L205.56356,129.660109 C205.56356,129.660109 207.194831,123.88075 208.367792,118.290412 C209.403519,113.344815 210.08192,108.544219 208.952978,108.023766 C207.953501,107.560278 207.295814,105.895346 206.881523,104.103538 C206.827147,103.883446 206.77795,103.658175 206.731343,103.432905 C206.429352,101.915916 206.228668,100.380509 206.130621,98.8368648 C206.130621,98.8368648 187.14315,97.8529239 189.794612,105.680433 C190.267793,107.017589 190.509475,108.425647 190.509264,109.844056 C190.506634,110.19797 190.485025,110.551488 190.444531,110.903088 C190.171713,113.37294 188.876673,115.615548 186.873861,117.086379 Z" id="Path" stroke="none" fill="#A1616A" fill-rule="nonzero"></path>
                    <path d="M182.92774,116.037706 L183.606142,126.824805 L185.146786,136.009117 L186.873861,140.263367 L188.414506,163.536159 C188.414506,163.536159 203.279781,165.255466 206.89447,163.505087 C207.155079,163.393922 207.381247,163.215133 207.549567,162.987223 C211.915158,156.402587 210.483265,137.303776 210.483265,137.303776 L212.148196,124.970853 L211.037379,118.570059 L208.357434,118.285234 L206.28598,118.065142 C206.28598,118.065142 205.819903,118.63997 205.14668,119.528107 C203.318621,121.941351 199.968043,126.687571 200.182957,128.6684 C200.488496,131.382005 199.812684,134.155165 198.76401,134.587581 C197.715337,135.019997 196.853094,135.757953 196.669252,135.019997 C196.48541,134.282042 196.29898,134.095611 196.482821,133.046937 C196.666663,131.998263 195.680133,128.792687 195.680133,128.792687 C195.680133,128.792687 194.01779,125.032997 194.126542,123.430209 C194.235293,121.827421 193.9427,119.976059 193.44814,119.546232 C192.95358,119.116405 192.277768,118.681399 192.831882,116.697982 C193.385997,114.714564 190.400513,110.884962 190.400513,110.884962 L182.92774,116.037706 Z" id="Path" stroke="none" fill="#CFCCDF" fill-rule="nonzero"></path>
                    <path d="M202.56254,142.979561 L203.178798,161.412918 L206.739111,163.385978 C206.999655,163.274705 207.225797,163.095937 207.394208,162.868114 C211.762388,156.273121 210.330495,137.176899 210.330495,137.176899 L211.995426,124.846566 L210.884609,118.448361 L208.202075,118.163536 C209.237803,113.217938 209.916204,108.417342 208.789851,107.896889 C207.787784,107.433401 207.130098,105.76847 206.70286,103.976661 L206.70286,103.976661 L204.786765,117.026825 C204.786765,117.026825 204.947302,118.202376 205.004267,119.414177 C205.048286,120.315259 205.03275,121.226699 204.848908,121.710902 C204.416492,122.821719 204.724621,124.79478 204.724621,124.79478 C203.613803,126.752304 203.059689,130.379939 202.787811,133.883287 C202.422717,138.54147 202.56254,142.979561 202.56254,142.979561 Z" id="Path" stroke="none" fill="#000000" fill-rule="nonzero" opacity="0.1"></path>
                    <path d="M206.762414,103.691836 C206.762414,103.691836 209.869596,104.077645 210.853537,105.372304 C211.837478,106.666963 214.429386,106.845626 214.429386,106.845626 C214.429386,106.845626 217.388976,107.832156 217.326833,108.078141 C217.264689,108.324127 218.189076,108.696989 220.040438,109.188959 C221.891801,109.680929 224.960143,111.470148 224.960143,111.902564 C224.960143,112.334981 229.83065,117.140755 229.83065,117.635315 C229.83065,118.129875 231.31174,119.965701 231.125309,123.243778 C230.938878,126.521855 230.755037,130.64146 231.495582,131.319862 C232.236127,131.998263 231.495582,134.649725 231.495582,134.649725 C231.09435,135.242101 231.079134,136.015077 231.456742,136.622785 C232.073,137.733603 231.335044,142.358125 231.335044,142.358125 L231.394598,147.166489 C231.394598,147.166489 230.716197,150.185634 231.518886,150.309921 C232.321574,150.434208 231.394598,151.788422 231.394598,151.788422 C231.394598,151.788422 230.716197,154.256042 231.581029,155.36427 C232.445862,156.472499 232.689257,161.221308 232.689257,161.221308 L245.89478,180.382263 C245.89478,180.382263 246.081211,183.895968 241.889105,183.833824 C237.696999,183.77168 237.746196,184.636513 237.88084,185.436612 C238.015485,186.236711 236.710469,187.101543 236.710469,187.101543 C236.710469,187.101543 235.045537,187.963786 236.032067,189.01246 C237.018597,190.061134 239.853901,192.464021 235.169824,194.066809 C234.615509,193.305577 234.159629,192.477337 233.813022,191.601778 C233.415431,190.51424 233.08595,189.402998 232.826491,188.274505 C232.826491,188.274505 232.394075,183.587839 231.531832,182.971581 C230.669589,182.355323 230.791287,179.395732 230.791287,179.395732 C230.791287,179.395732 232.023803,176.992845 230.299317,176.006315 C228.574831,175.019785 203.517999,161.161754 203.517999,161.161754 L202.901741,142.728398 C202.901741,142.728398 202.469325,129.105995 205.058643,124.543616 C205.058643,124.543616 204.750514,122.570555 205.18293,121.462327 C205.615346,120.354099 205.120787,116.775661 205.120787,116.775661 L206.762414,103.691836 Z" id="Path" stroke="none" fill="#565387" fill-rule="nonzero"></path>
                    <path d="M190.605069,111.086929 C190.605069,111.086929 184.40883,109.810395 182.743899,110.672638 C181.078967,111.534881 177.824194,112.226229 177.306331,112.707842 C176.788467,113.189456 175.579255,112.83213 174.471027,115.729577 C173.362799,118.627024 173.235922,121.584025 171.819565,122.940828 C170.403208,124.297631 169.662663,125.222017 169.60052,126.208547 C169.538376,127.195078 169.784361,127.441063 169.230247,127.762138 C168.676133,128.083214 167.873444,129.364926 168.11943,129.859486 C168.365415,130.354046 180.965037,141.187753 180.965037,141.187753 C180.965037,141.187753 181.583884,145.330662 182.137998,146.36639 C182.692112,147.402117 181.521741,161.840155 180.289225,162.826685 C179.05671,163.813216 188.611294,163.722589 188.611294,163.722589 C188.611294,163.722589 189.041121,154.258631 189.411393,153.764072 C189.781666,153.269512 189.152461,143.147867 189.152461,143.147867 C189.152461,143.147867 189.090318,134.51767 189.893006,132.23648 C190.695695,129.955291 190.605069,122.381535 190.605069,122.381535 C190.605069,122.381535 191.314542,117.832103 192.176785,116.770483 C193.039028,115.708862 190.605069,111.086929 190.605069,111.086929 Z" id="Path" stroke="none" fill="#000000" fill-rule="nonzero" opacity="0.1"></path>
                    <path d="M190.421227,110.903088 C190.421227,110.903088 184.222399,109.626554 182.557468,110.488797 C180.892536,111.35104 177.637763,112.029441 177.132846,112.524001 C176.627929,113.018561 175.40836,112.645699 174.284596,115.543146 C173.160832,118.440593 173.052081,121.400184 171.633134,122.756986 C170.214188,124.113789 169.476232,125.038176 169.414089,126.024706 C169.351945,127.011236 169.60052,127.257221 169.046406,127.56535 C168.492291,127.873479 167.689603,129.168138 167.935588,129.660109 C168.181573,130.152079 180.757892,141.003912 180.757892,141.003912 C180.757892,141.003912 181.374149,145.146821 181.928264,146.182548 C182.482378,147.218275 181.312006,161.653724 180.07949,162.640254 C178.846975,163.626785 188.401559,163.536159 188.401559,163.536159 C188.401559,163.536159 188.833975,154.072201 189.204248,153.58023 C189.57452,153.08826 188.945316,142.964025 188.945316,142.964025 C188.945316,142.964025 188.885762,134.333828 189.685861,132.052639 C190.48596,129.771449 190.397923,122.187336 190.397923,122.187336 C190.397923,122.187336 191.107397,117.637904 191.96705,116.578873 C192.826704,115.519842 190.421227,110.903088 190.421227,110.903088 Z" id="Path" stroke="none" fill="#565387" fill-rule="nonzero"></path>
                    <path d="M189.768719,105.680433 C190.2419,107.017589 190.483582,108.425647 190.483371,109.844056 C196.721665,111.69202 203.415988,109.046346 206.705449,103.432905 C206.403459,101.915916 206.202775,100.380509 206.104728,98.8368648 C206.104728,98.8368648 187.119847,97.8529239 189.768719,105.680433 Z" id="Path" stroke="none" fill="#000000" fill-rule="nonzero" opacity="0.1"></path>
                    <path d="M180.400561,95.9394178 C180.407217,103.449041 186.291916,109.639045 193.791607,110.025202 C201.291298,110.411358 207.780634,104.85849 208.558541,97.3892629 C209.336448,89.9200362 204.130612,83.1491355 196.712299,81.9816077 C189.293986,80.81408 182.260057,85.658631 180.706105,93.0057202 C180.502117,93.9702706 180.399712,94.9535334 180.400561,95.9394178 L180.400561,95.9394178 Z" id="Path" stroke="none" fill="#A1616A" fill-rule="nonzero"></path>
                    <path d="M171.337952,128.611435 L167.948535,129.660109 C167.948535,129.660109 168.256664,130.892624 167.270133,131.508882 C166.283603,132.12514 166.40789,133.360244 166.40789,133.360244 C166.40789,133.360244 166.037618,134.714458 165.175375,135.022587 C164.313132,135.330715 163.756428,137.352973 163.756428,137.352973 L160.921125,140.620693 C160.921125,140.620693 159.872451,141.482935 160.058882,141.915352 C160.245313,142.347768 158.948065,142.469466 158.948065,142.469466 L159.626466,153.453353 L165.483504,154.564171 L169.108549,154.193899 L172.06814,153.083081 L174.657458,151.52949 L175.838187,148.533649 L181.016824,140.643996 L171.337952,128.611435 Z" id="Path" stroke="none" fill="#565387" fill-rule="nonzero"></path>
                    <path d="M159.810308,143.355013 C159.810308,143.355013 152.301285,132.50318 146.679875,138.360218 C141.058465,144.217255 148.961064,153.709696 150.809838,153.401567 C152.658611,153.093438 161.475239,152.601468 161.475239,152.601468 L159.810308,143.355013 Z" id="Path" stroke="none" fill="#A1616A" fill-rule="nonzero"></path>
                    <rect id="Rectangle" stroke="none" fill="#30374E" fill-rule="nonzero" transform="translate(153.791162, 145.641518) rotate(-42.050000) translate(-153.791162, -145.641518) " x="145.839366" y="136.604798" width="15.9035924" height="18.073441" rx="3.26771956"></rect>
                    <rect id="Rectangle" stroke="none" fill="#000000" fill-rule="nonzero" opacity="0.1" transform="translate(153.791162, 145.641518) rotate(-42.050000) translate(-153.791162, -145.641518) " x="145.839366" y="136.604798" width="15.9035924" height="18.073441" rx="3.26771956"></rect>
                    <rect id="Rectangle" stroke="none" fill="#30374E" fill-rule="nonzero" transform="translate(154.003011, 144.747931) rotate(-42.050000) translate(-154.003011, -144.747931) " x="146.051214" y="135.71121" width="15.9035924" height="18.073441" rx="3.26771956"></rect>
                    <circle id="Oval" stroke="none" fill="#F15A29" fill-rule="nonzero" cx="153.805679" cy="145.193428" r="3.51370479"></circle>
                    <circle id="Oval" stroke="none" fill="#000000" fill-rule="nonzero" opacity="0.1" cx="153.805679" cy="145.193428" r="3.51370479"></circle>
                    <circle id="Oval" stroke="none" fill="#F15A29" fill-rule="nonzero" cx="154.002467" cy="144.748066" r="3.51370479"></circle>
                    <path d="M154.942218,145.625845 C154.880246,153.764072 171.710814,155.488558 171.710814,155.488558 L176.009082,156.172138 L177.935535,156.477677 L178.738224,148.533649 C178.738224,148.533649 177.855266,148.401594 176.752217,148.145251 C175.123535,147.764621 173.013241,147.109524 172.570468,146.190316 C171.832512,144.649672 155.001944,137.490207 154.942218,145.625845 Z" id="Path" stroke="none" fill="#A1616A" fill-rule="nonzero"></path>
                    <path d="M198.608651,101.77833 C198.538847,101.48815 198.538847,101.185553 198.608651,100.895373 C198.719992,100.059023 198.580169,99.1424044 198.020876,98.5106107 C197.244081,97.6172959 195.897635,97.5318484 194.714317,97.3842573 C193.530998,97.2366662 192.163838,96.7809462 191.824638,95.6364675 C191.581242,94.810475 191.948925,93.8058196 191.423293,93.1248289 C191.178427,92.8504197 190.86328,92.6480811 190.511853,92.539643 C189.634075,92.2004423 188.647544,92.0217793 187.75164,92.3014257 C186.179924,92.8192893 185.229644,94.6628839 183.590606,94.8907439 C183.34243,94.9356822 183.086499,94.9059438 182.855239,94.8052964 C182.236392,94.4945782 182.210499,93.5986741 181.734065,93.0963464 C180.985752,92.304015 179.564216,92.8141107 178.647597,92.2263355 C178.049465,91.8405271 177.819016,91.0922141 177.653299,90.4008661 C177.327045,89.0595993 177.065524,87.6535995 177.378832,86.3123327 C177.91482,84.0181968 179.96815,82.4464806 181.262809,80.4889561 C182.482378,78.6634868 183.165958,76.346047 184.999195,75.1446033 C186.832432,73.9431597 189.186122,74.2098595 191.252398,74.8235279 C192.220803,75.1109422 193.178851,75.4682681 194.180917,75.6003233 C195.848438,75.8048795 197.521138,75.3413915 199.199016,75.2947838 C201.568892,75.2182181 203.897866,75.9253746 205.825081,77.306684 C206.259322,77.5910485 206.628235,77.9643744 206.907416,78.4019656 C207.241438,78.9923302 207.285457,79.6966247 207.38644,80.3646688 C207.582248,81.6389882 208.021817,82.8636278 208.681099,83.9715891 C209.198963,84.8390107 209.848882,85.6261634 210.317548,86.5220675 C210.786215,87.4179716 211.060683,88.4770027 210.760322,89.4402291 C210.602373,89.9580927 210.289066,90.4060448 210.172546,90.9264977 C209.898079,92.1305307 210.69041,93.280188 211.231578,94.3910055 C211.755716,95.4041392 212.003974,96.5373778 211.951408,97.6768503 C211.890191,98.8236521 211.355691,99.8935903 210.475497,100.631262 C209.602896,101.314842 208.455828,101.542702 207.35019,101.578953 C205.997337,101.624573 204.647579,101.421846 203.367818,100.98082 C202.914688,100.825461 202.332091,100.620905 201.858246,100.721888 C201.138415,100.86948 201.231631,101.309664 200.926091,101.840474 C200.532515,102.565483 198.934905,102.702717 198.608651,101.77833 Z" id="Path" stroke="none" fill="#434175" fill-rule="nonzero"></path>
                    <path d="M191.003824,181.38174 L198.95562,175.167376 L211.472384,162.837043 C211.472384,162.837043 209.789327,162.754184 207.329475,162.650612 C206.881523,163.106332 206.482768,163.686339 206.456875,164.333669 C206.394731,165.840652 203.072636,164.439831 201.34815,165.302074 C199.623664,166.164317 191.177308,176.972131 189.696218,176.902219 C188.215128,176.832307 187.047346,176.151317 186.428499,177.199991 C186.415354,177.224223 186.40065,177.247575 186.38448,177.269902 C186.138468,177.550849 185.809164,177.745891 185.444558,177.826606 L191.003824,181.38174 Z" id="Path" stroke="none" fill="#000000" fill-rule="nonzero" opacity="0.1"></path>
                    <path d="M174.975944,180.949323 L178.971262,193.704305 L179.597877,195.708437 L181.501026,195.190573 L185.695722,194.038327 L204.380242,188.906298 C204.380242,188.906298 207.891357,188.85969 211.112469,187.111901 C214.672781,185.175091 218.688814,184.201507 222.722972,184.579548 C225.193181,184.809997 227.940448,183.745787 230.231995,179.535556 C230.231995,179.535556 235.410631,164.258578 222.339753,159.856737 C209.268874,155.454896 208.647438,162.187124 208.647438,162.187124 C208.647438,162.187124 208.580116,162.223374 208.471364,162.295875 C207.953501,162.61954 206.542322,163.637142 206.490536,164.885193 C206.428392,166.392177 203.106297,164.988766 201.381811,165.851009 C199.657325,166.713252 191.210969,177.523655 189.729879,177.453744 C188.248789,177.383832 187.081007,176.702842 186.46216,177.751515 C186.46216,177.774819 186.433677,177.795534 186.418141,177.818838 C185.962421,178.448042 184.590083,178.595633 183.681232,178.618937 C183.186672,178.634473 182.826757,178.618937 182.826757,178.618937 L182.710238,178.655187 L181.741833,178.924477 L174.975944,180.949323 Z" id="Path" stroke="none" fill="#434175" fill-rule="nonzero"></path>
                    <path d="M176.009082,156.172138 L177.935535,156.477677 L178.738224,148.533649 C178.738224,148.533649 177.855266,148.401594 176.752217,148.145251 C177.044809,149.245711 176.381944,153.536212 176.009082,156.172138 Z" id="Path" stroke="none" fill="#000000" fill-rule="nonzero" opacity="0.1"></path>
                    <path d="M226.417929,119.015422 C226.417929,119.015422 232.150679,117.35049 230.731733,133.626944 C229.312787,149.903398 218.712118,160.185581 218.712118,160.185581 C218.712118,160.185581 206.506072,165.548059 201.019307,164.685816 C195.532541,163.823573 191.526866,163.650089 191.526866,163.650089 C189.800011,162.777162 187.910214,162.273628 185.977957,162.171588 C182.894079,162.047301 176.423373,160.136384 176.299086,159.520126 C176.174799,158.903868 177.901874,149.841255 177.161329,149.162853 C177.161329,149.162853 185.791526,149.51759 186.656359,150.141616 C187.521191,150.765641 188.751117,150.317689 189.675504,150.141616 C190.59989,149.965542 193.437783,147.497922 199.046246,149.657413 C199.046246,149.657413 200.957163,149.841255 201.697708,149.349284 C202.438253,148.857314 203.624161,149.224997 203.624161,149.224997 C203.624161,149.224997 204.786765,148.792581 204.965428,148.533649 C205.144091,148.274717 206.62777,148.533649 206.62777,148.533649 C206.806218,148.620822 207.014502,148.62269 207.194486,148.538732 C207.374469,148.454773 207.506875,148.29398 207.554746,148.101233 C207.748404,147.596557 208.041639,147.136011 208.416989,146.747019 C208.416989,146.747019 210.08192,137.376277 213.225353,133.862572 C213.225353,133.862572 214.149739,133.059883 213.903754,132.073353 C213.657769,131.086823 219.028015,117.039772 226.417929,119.015422 Z" id="Path" stroke="none" fill="#000000" fill-rule="nonzero" opacity="0.1"></path>
                    <path d="M226.278106,117.762192 C226.278106,117.762192 232.010856,116.09726 230.594499,132.373714 C229.178142,148.650168 218.559348,158.942708 218.559348,158.942708 C218.559348,158.942708 206.353302,164.305186 200.866537,163.442943 C195.379772,162.5807 191.374096,162.394269 191.374096,162.394269 C189.647432,161.520844 187.757527,161.017281 185.825187,160.915769 C182.743899,160.791481 176.270603,158.880564 176.146316,158.264307 C176.022029,157.648049 177.749104,148.585435 177.011148,147.907034 C177.011148,147.907034 185.641346,148.261771 186.503589,148.885796 C187.365832,149.509822 188.600937,149.06187 189.525323,148.885796 C190.44971,148.709723 193.285013,146.244692 198.896066,148.401594 C198.896066,148.401594 200.806983,148.585435 201.544938,148.093465 C202.282894,147.601494 203.47398,147.969178 203.47398,147.969178 C203.47398,147.969178 204.628816,147.536761 204.812658,147.290776 C204.996499,147.044791 206.477589,147.290776 206.477589,147.290776 C206.655313,147.378023 206.862961,147.380215 207.042486,147.296738 C207.222012,147.213261 207.354155,147.053072 207.401976,146.860949 C207.595199,146.355287 207.888465,145.893811 208.264219,145.504147 C208.264219,145.504147 209.929151,136.133404 213.072583,132.619699 C213.072583,132.619699 213.996969,131.817011 213.750984,130.83307 C213.504999,129.849129 218.867477,115.789131 226.278106,117.762192 Z" id="Path" stroke="none" fill="#565387" fill-rule="nonzero"></path>
                    <path d="M181.741833,178.924477 L189.882649,188.763886 C189.913721,188.735403 189.934435,188.714689 189.934435,188.706921 C189.996579,188.52049 190.796678,186.425731 190.612837,186.301444 C190.428995,186.177157 189.010049,183.095868 186.174745,181.801209 C184.442492,181.024414 183.30837,179.602878 182.689523,178.629294 L181.741833,178.924477 Z" id="Path" stroke="none" fill="#000000" fill-rule="nonzero" opacity="0.1"></path>
                    <path d="M181.853173,195.972548 L182.743899,196.490411 C182.743899,196.490411 184.815353,194.833248 186.863504,193.165727 C188.911655,191.498206 190.910608,189.864346 190.94427,189.77113 C191.003824,189.587289 191.803923,187.489941 191.620082,187.368243 C191.524277,187.30351 191.102218,186.449035 190.325422,185.459916 C184.804996,183.906325 188.318701,187.746284 188.787367,187.922357 C188.787367,187.922357 182.05514,186.368766 181.697814,193.699126 C181.648979,194.460469 181.70122,195.224926 181.853173,195.972548 Z" id="Path" stroke="none" fill="#000000" fill-rule="nonzero" opacity="0.1"></path>
                    <path d="M188.660491,199.074551 L189.833452,199.752952 L201.744316,200.061081 C201.744316,200.061081 204.297383,201.614672 205.954547,202.085928 C206.14982,202.146827 206.349918,202.191004 206.55268,202.217983 C207.655107,202.307222 208.762009,202.327977 209.867007,202.280127 C210.778447,202.256823 211.485331,202.217983 211.485331,202.217983 C211.485331,202.217983 210.920859,187.199938 210.496211,185.646347 C210.294244,184.890266 209.297357,185.055982 208.313416,185.434023 C207.574188,185.733829 206.861362,186.095006 206.182407,186.513768 C206.182407,186.513768 201.128058,187.003149 200.325369,187.438155 C199.522681,187.87316 197.244081,187.179223 195.825134,187.438155 C194.406188,187.697087 191.881603,185.768045 191.881603,185.768045 C184.975891,183.489445 188.859868,187.741105 189.351839,187.927536 C189.351839,187.927536 182.635147,186.373945 182.264875,193.704305 C181.894602,201.034665 188.660491,199.074551 188.660491,199.074551 Z" id="Path" stroke="none" fill="#565387" fill-rule="nonzero"></path>
                    <path d="M205.861332,193.279657 C205.990798,196.386838 208.41181,200.242333 209.85406,202.280127 C210.7655,202.256823 211.472384,202.217983 211.472384,202.217983 C211.472384,202.217983 210.907913,187.199938 210.483265,185.646347 C210.281298,184.890266 209.28441,185.055982 208.300469,185.434023 C207.117151,187.660836 205.757759,190.775786 205.861332,193.279657 Z" id="Path" stroke="none" fill="#565387" fill-rule="nonzero"></path>
                    <path d="M205.861332,193.279657 C205.990798,196.386838 208.41181,200.242333 209.85406,202.280127 C210.7655,202.256823 211.472384,202.217983 211.472384,202.217983 C211.472384,202.217983 210.907913,187.199938 210.483265,185.646347 C210.281298,184.890266 209.28441,185.055982 208.300469,185.434023 C207.117151,187.660836 205.757759,190.775786 205.861332,193.279657 Z" id="Path" stroke="none" fill="#000000" fill-rule="nonzero" opacity="0.1"></path>
                    <path d="M203.826128,193.691358 C204.644352,196.689789 204.636584,200.053313 205.941601,202.085928 C206.136873,202.146827 206.336972,202.191004 206.539733,202.217983 C207.64216,202.307222 208.749063,202.327977 209.85406,202.280127 C210.7655,202.256823 211.472384,202.217983 211.472384,202.217983 C211.472384,202.217983 210.907913,187.199938 210.483265,185.646347 C210.281298,184.890266 209.28441,185.055982 208.300469,185.434023 C207.561242,185.733829 206.848415,186.095006 206.169461,186.513768 C206.169461,186.513768 202.780043,189.853989 203.826128,193.691358 Z" id="Path" stroke="none" fill="#000000" fill-rule="nonzero" opacity="0.05"></path>
                    <path d="M162.780256,163.277227 C162.780256,163.277227 168.68908,165.195912 173.696821,172.010997 L162.780256,163.277227 Z" id="Path" stroke="none" fill="#000000" fill-rule="nonzero" opacity="0.1"></path>
                    <g id="Group" opacity="0.1" stroke="none" stroke-width="1" fill="none" fill-rule="evenodd" transform="translate(209.710067, 88.312551)">
                        <path d="M1.09168422,0.993033176 C1.08201104,1.03682735 1.06990885,1.08004944 1.05543377,1.12249909 C0.998829128,1.29947308 0.930492306,1.47247769 0.850877631,1.64036273 C0.91167192,1.41783366 0.992262331,1.20119277 1.09168422,0.993033176 Z" id="Path" fill="#000000" fill-rule="nonzero"></path>
                    </g>
                    <path d="M211.757209,135.65438 C210.628266,137.179489 209.338786,138.590667 208.339309,140.203812 C207.339832,141.816958 206.632948,143.699392 206.842683,145.584416 C207.878411,144.522795 208.349666,143.057241 209.002175,141.726331 C210.105224,139.473625 211.757209,137.562708 213.145084,135.491253 C213.404016,135.095087 215.115555,132.811309 214.253312,132.702557 C213.543839,132.611931 212.143018,135.133927 211.757209,135.65438 Z" id="Path" stroke="none" fill="#000000" fill-rule="nonzero" opacity="0.1"></path>
                </g>
            </g>
        </g>
    </g>
</svg>